<?xml version="1.0" standalone="no"?><!DOCTYPE svg PUBLIC "-//W3C//DTD SVG 1.1//EN" "http://www.w3.org/Graphics/SVG/1.1/DTD/svg11.dtd"><svg t="1512006131836" class="icon" style="" viewBox="0 0 1024 1024" version="1.1" xmlns="http://www.w3.org/2000/svg" p-id="1592" xmlns:xlink="http://www.w3.org/1999/xlink" width="200" height="200"><defs><style type="text/css"></style></defs><path d="M512 580.266667c37.546667 0 68.266667-30.72 68.266667-68.266667s-30.72-68.266667-68.266667-68.266667-68.266667 30.72-68.266667 68.266667 30.72 68.266667 68.266667 68.266667z m0 102.4c-95.573333 0-170.666667-75.093333-170.666667-170.666667s75.093333-170.666667 170.666667-170.666667 170.666667 75.093333 170.666667 170.666667-75.093333 170.666667-170.666667 170.666667z" fill="#26BD71" p-id="1593"></path><path d="M972.8 460.8h-54.613333c-23.893333-184.32-170.666667-331.093333-354.986667-354.986667v-54.613333c0-27.306667-23.893333-51.2-51.2-51.2s-51.2 23.893333-51.2 51.2v54.613333c-184.32 23.893333-331.093333 170.666667-354.986667 354.986667h-54.613333c-27.306667 0-51.2 23.893333-51.2 51.2s23.893333 51.2 51.2 51.2h54.613333c23.893333 184.32 170.666667 331.093333 354.986667 354.986667v54.613333c0 27.306667 23.893333 51.2 51.2 51.2s51.2-23.893333 51.2-51.2v-54.613333c184.32-23.893333 331.093333-170.666667 354.986667-354.986667h54.613333c27.306667 0 51.2-23.893333 51.2-51.2s-23.893333-51.2-51.2-51.2zM512 819.2c-170.666667 0-307.2-136.533333-307.2-307.2s136.533333-307.2 307.2-307.2 307.2 136.533333 307.2 307.2-136.533333 307.2-307.2 307.2z" fill="#4D6AFF" p-id="1594"></path></svg>