<?xml version="1.0" standalone="no"?><!DOCTYPE svg PUBLIC "-//W3C//DTD SVG 1.1//EN" "http://www.w3.org/Graphics/SVG/1.1/DTD/svg11.dtd"><svg t="1512006125009" class="icon" style="" viewBox="0 0 1024 1024" version="1.1" xmlns="http://www.w3.org/2000/svg" p-id="1483" xmlns:xlink="http://www.w3.org/1999/xlink" width="200" height="200"><defs><style type="text/css"></style></defs><path d="M515.413333 1024c-116.053333 0-409.6-334.506667-409.6-617.813333 0-225.28 184.32-406.186667 406.186667-406.186667 225.28 0 406.186667 184.32 406.186667 406.186667 3.413333 283.306667-286.72 617.813333-402.773334 617.813333z m0-921.6c-167.253333 0-303.786667 136.533333-303.786666 303.786667 0 232.106667 238.933333 488.106667 303.786666 512 64.853333-23.893333 303.786667-279.893333 303.786667-512 0-167.253333-136.533333-303.786667-303.786667-303.786667z m0 0" fill="#4D6AFF" p-id="1484"></path><path d="M522.24 600.746667c-105.813333 0-191.146667-85.333333-191.146667-191.146667 0-105.813333 85.333333-191.146667 191.146667-191.146667 105.813333 0 191.146667 85.333333 191.146667 191.146667 0 105.813333-85.333333 191.146667-191.146667 191.146667z m0-276.48c-47.786667 0-85.333333 37.546667-85.333333 85.333333s37.546667 85.333333 85.333333 85.333333 85.333333-37.546667 85.333333-85.333333-37.546667-85.333333-85.333333-85.333333z m0 0" fill="#26BD71" p-id="1485"></path></svg>