<?xml version="1.0" standalone="no"?><!DOCTYPE svg PUBLIC "-//W3C//DTD SVG 1.1//EN" "http://www.w3.org/Graphics/SVG/1.1/DTD/svg11.dtd"><svg t="1512006135907" class="icon" style="" viewBox="0 0 1024 1024" version="1.1" xmlns="http://www.w3.org/2000/svg" p-id="1701" xmlns:xlink="http://www.w3.org/1999/xlink" width="200" height="200"><defs><style type="text/css"></style></defs><path d="M508.586667 529.066667c54.613333-44.373333 88.746667-112.64 88.746666-187.733334 0-133.12-105.813333-238.933333-238.933333-238.933333s-238.933333 105.813333-238.933333 238.933333c0 75.093333 34.133333 143.36 88.746666 187.733334-122.88 58.026667-208.213333 180.906667-208.213333 324.266666 0 27.306667 23.893333 51.2 51.2 51.2s51.2-23.893333 51.2-51.2c0-139.946667 116.053333-256 256-256s256 116.053333 256 256c0 27.306667 23.893333 51.2 51.2 51.2s51.2-23.893333 51.2-51.2c0-143.36-85.333333-269.653333-208.213333-324.266666z m-150.186667-324.266667c75.093333 0 136.533333 61.44 136.533333 136.533333s-61.44 136.533333-136.533333 136.533334-136.533333-61.44-136.533333-136.533334 61.44-136.533333 136.533333-136.533333z" fill="#4D6AFF" p-id="1702"></path><path d="M972.8 426.666667h-68.266667v-68.266667c0-27.306667-23.893333-51.2-51.2-51.2s-51.2 23.893333-51.2 51.2v68.266667h-68.266666c-27.306667 0-51.2 23.893333-51.2 51.2s23.893333 51.2 51.2 51.2h68.266666v68.266666c0 27.306667 23.893333 51.2 51.2 51.2s51.2-23.893333 51.2-51.2v-68.266666h68.266667c27.306667 0 51.2-23.893333 51.2-51.2s-23.893333-51.2-51.2-51.2z" fill="#26BD71" p-id="1703"></path></svg>