<?xml version="1.0" standalone="no"?><!DOCTYPE svg PUBLIC "-//W3C//DTD SVG 1.1//EN" "http://www.w3.org/Graphics/SVG/1.1/DTD/svg11.dtd"><svg t="1513838398504" class="icon" style="" viewBox="0 0 1024 1024" version="1.1" xmlns="http://www.w3.org/2000/svg" p-id="1652" xmlns:xlink="http://www.w3.org/1999/xlink" width="200" height="200"><defs><style type="text/css"></style></defs><path d="M699.733333 832.853333c-23.893333 0-47.786667-17.066667-51.2-44.373333-3.413333-27.306667 17.066667-54.613333 44.373334-58.026667 102.4-13.653333 177.493333-102.4 177.493333-201.386666 0-112.64-92.16-204.8-204.8-204.8s-204.8 92.16-204.8 204.8c0 27.306667-23.893333 51.2-51.2 51.2s-51.2-23.893333-51.2-51.2c0-170.666667 136.533333-307.2 307.2-307.2s307.2 136.533333 307.2 307.2c0 153.6-112.64 283.306667-266.24 303.786666h-6.826667z" fill="#4D6AFF" p-id="1653"></path><path d="M358.4 836.266667c-170.666667 0-307.2-136.533333-307.2-307.2 0-150.186667 112.64-279.893333 262.826667-303.786667 27.306667-3.413333 51.2 13.653333 58.026666 44.373333 3.413333 27.306667-13.653333 54.613333-44.373333 58.026667-98.986667 13.653333-174.08 102.4-174.08 201.386667 0 112.64 92.16 204.8 204.8 204.8s204.8-92.16 204.8-204.8c0-27.306667 23.893333-51.2 51.2-51.2s51.2 23.893333 51.2 51.2c0 170.666667-136.533333 307.2-307.2 307.2z" fill="#26BD71" p-id="1654"></path></svg>