<?xml version="1.0" standalone="no"?><!DOCTYPE svg PUBLIC "-//W3C//DTD SVG 1.1//EN" "http://www.w3.org/Graphics/SVG/1.1/DTD/svg11.dtd"><svg t="1508811885811" class="icon" style="" viewBox="0 0 1024 1024" version="1.1" xmlns="http://www.w3.org/2000/svg" p-id="1796" xmlns:xlink="http://www.w3.org/1999/xlink" width="200" height="200"><defs><style type="text/css"></style></defs><path d="M788.48 443.733333c-20.48-20.48-51.2-20.48-71.68 0l-153.6 153.6v-546.133333c0-27.306667-23.893333-51.2-51.2-51.2s-51.2 23.893333-51.2 51.2v542.72l-150.186667-150.186667c-20.48-20.48-51.2-20.48-71.68 0s-20.48 51.2 0 71.68l238.933334 238.933334c10.24 10.24 23.893333 13.653333 37.546666 13.653333s27.306667-3.413333 37.546667-13.653333l238.933333-238.933334c17.066667-17.066667 17.066667-51.2-3.413333-71.68z" fill="#4D6AFF" p-id="1797"></path><path d="M512 1020.586667c-163.84 0-310.613333-37.546667-436.906667-116.053334-23.893333-13.653333-30.72-47.786667-17.066666-71.68 13.653333-23.893333 47.786667-30.72 71.68-17.066666 109.226667 64.853333 238.933333 98.986667 382.293333 98.986666s273.066667-34.133333 382.293333-98.986666c23.893333-13.653333 54.613333-6.826667 71.68 17.066666 13.653333 23.893333 6.826667 54.613333-17.066666 71.68-126.293333 78.506667-273.066667 116.053333-436.906667 116.053334z" fill="#26BD71" p-id="1798"></path></svg>