<?xml version="1.0" standalone="no"?><!DOCTYPE svg PUBLIC "-//W3C//DTD SVG 1.1//EN" "http://www.w3.org/Graphics/SVG/1.1/DTD/svg11.dtd"><svg t="1513838392909" class="icon" style="" viewBox="0 0 1024 1024" version="1.1" xmlns="http://www.w3.org/2000/svg" p-id="1543" xmlns:xlink="http://www.w3.org/1999/xlink" width="200" height="200"><defs><style type="text/css"></style></defs><path d="M382.293333 697.378133l-23.893333-64.853333h-208.213333l-23.893334 68.266667c-10.24 23.893333-17.066667 40.96-23.893333 51.2-6.826667 10.24-17.066667 13.653333-34.133333 13.653333-13.653333 0-23.893333-3.413333-34.133334-13.653333s-13.653333-20.48-13.653333-34.133334c0-6.826667 0-13.653333 3.413333-20.48 3.413333-6.826667 6.826667-17.066667 10.24-30.72l129.706667-331.093333c3.413333-10.24 6.826667-20.48 13.653333-34.133333s10.24-23.893333 17.066667-34.133334c6.826667-10.24 13.653333-17.066667 23.893333-20.48 10.24-6.826667 20.48-6.826667 34.133334-6.826666s27.306667 3.413333 37.546666 6.826666 17.066667 13.653333 23.893334 20.48c6.826667 10.24 10.24 17.066667 13.653333 27.306667s10.24 23.893333 17.066667 40.96l133.12 327.68c10.24 23.893333 17.066667 44.373333 17.066666 54.613333 0 10.24-3.413333 23.893333-13.653333 34.133334s-20.48 13.653333-34.133333 13.653333c-6.826667 0-13.653333 0-20.48-3.413333-6.826667-3.413333-10.24-6.826667-13.653334-10.24-3.413333-3.413333-6.826667-13.653333-13.653333-23.893334s-13.653333-20.48-17.066667-30.72z m-204.8-139.946666h153.6l-75.093333-208.213334-78.506667 208.213334z" fill="#4D6AFF" p-id="1544"></path><path d="M631.466667 246.818133h133.12c34.133333 0 64.853333 3.413333 88.746666 10.24 23.893333 6.826667 47.786667 17.066667 68.266667 37.546667 54.613333 44.373333 78.506667 112.64 78.506667 208.213333 0 30.72-3.413333 58.026667-6.826667 81.92s-13.653333 47.786667-23.893333 68.266667c-10.24 20.48-23.893333 37.546667-40.96 54.613333-13.653333 13.653333-27.306667 20.48-44.373334 30.72-17.066667 6.826667-34.133333 13.653333-51.2 17.066667-17.066667 3.413333-40.96 3.413333-61.44 3.413333h-136.533333c-17.066667 0-34.133333-3.413333-40.96-6.826666-10.24-6.826667-17.066667-13.653333-17.066667-23.893334-3.413333-10.24-3.413333-23.893333-3.413333-40.96v-375.466666c0-23.893333 3.413333-37.546667 13.653333-47.786667 6.826667-10.24 23.893333-17.066667 44.373334-17.066667z m40.96 81.92v344.746667h119.466666c10.24 0 20.48-3.413333 30.72-6.826667 10.24-3.413333 20.48-10.24 27.306667-17.066666 34.133333-30.72 51.2-78.506667 51.2-150.186667 0-51.2-6.826667-88.746667-23.893333-112.64s-34.133333-40.96-54.613334-47.786667c-23.893333-6.826667-47.786667-10.24-81.92-10.24h-68.266666z" fill="#26BD71" p-id="1545"></path></svg>