<?xml version="1.0" standalone="no"?><!DOCTYPE svg PUBLIC "-//W3C//DTD SVG 1.1//EN" "http://www.w3.org/Graphics/SVG/1.1/DTD/svg11.dtd"><svg t="1508811889740" class="icon" style="" viewBox="0 0 1024 1024" version="1.1" xmlns="http://www.w3.org/2000/svg" p-id="1905" xmlns:xlink="http://www.w3.org/1999/xlink" width="200" height="200"><defs><style type="text/css"></style></defs><path d="M886.821973 1022.241744c-10.222417 0-17.037362-3.407472-27.25978-6.814945l-333.932303-139.706371c-6.814945-3.407472-17.037362-3.407472-27.25978 0l-333.932303 143.113844c-34.074725 13.62989-74.964395 0-88.594285-37.482198-3.407472-6.814945-6.814945-17.037362-6.814944-27.259779v-885.942845c0-37.482197 30.667252-68.14945 68.149449-68.14945h749.643946c37.482197 0 68.14945 30.667252 68.149449 68.14945v885.942845c0 37.482197-30.667252 68.14945-68.149449 68.149449z m-715.569221-920.01757v800.756033l286.227688-122.669009c34.074725-13.62989 71.556922-13.62989 105.631647 0l286.227689 122.669009V102.224174H171.252752z" fill="#4D6AFF" p-id="1906"></path><path d="M324.589014 272.597798h374.821972c27.25978 0 51.112087 23.852307 51.112088 51.112088s-23.852307 51.112087-51.112088 51.112087h-374.821972c-27.25978 0-51.112087-23.852307-51.112088-51.112087s23.852307-51.112087 51.112088-51.112088zM324.589014 477.046147h170.373624c27.25978 0 51.112087 23.852307 51.112087 51.112088s-23.852307 51.112087-51.112087 51.112087h-170.373624c-27.25978 0-51.112087-23.852307-51.112088-51.112087s23.852307-51.112087 51.112088-51.112088z" fill="#26BD71" p-id="1907"></path></svg>