<?xml version="1.0" standalone="no"?><!DOCTYPE svg PUBLIC "-//W3C//DTD SVG 1.1//EN" "http://www.w3.org/Graphics/SVG/1.1/DTD/svg11.dtd"><svg t="1517801892444" class="icon" style="" viewBox="0 0 1024 1024" version="1.1" xmlns="http://www.w3.org/2000/svg" p-id="2801" xmlns:xlink="http://www.w3.org/1999/xlink" width="200" height="200"><defs><style type="text/css"></style></defs><path d="M887.466667 1006.933333c-10.24 0-17.066667-3.413333-27.306667-6.826666l-334.506667-139.946667c-6.826667-3.413333-17.066667-3.413333-27.306666 0l-334.506667 143.36c-34.133333 13.653333-75.093333 0-88.746667-37.546667-3.413333-6.826667-6.826667-17.066667-6.826666-27.306666v-921.6h887.466666v921.6c0 37.546667-30.72 68.266667-68.266666 68.266666z m-716.8-887.466666V887.466667l286.72-122.88c34.133333-13.653333 71.68-13.653333 105.813333 0l286.72 122.88v-768H170.666667z" fill="#4D6AFF" p-id="2802"></path><path d="M512 546.133333c-85.333333 0-153.6-68.266667-153.6-153.6s68.266667-153.6 153.6-153.6 153.6 68.266667 153.6 153.6-68.266667 153.6-153.6 153.6z m0-204.8c-27.306667 0-51.2 23.893333-51.2 51.2s23.893333 51.2 51.2 51.2 51.2-23.893333 51.2-51.2-23.893333-51.2-51.2-51.2z" fill="#26BD71" p-id="2803"></path><path d="M515.413333 645.12c-27.306667 0-51.2-23.893333-51.2-51.2v-88.746667c0-27.306667 23.893333-51.2 51.2-51.2s51.2 23.893333 51.2 51.2v88.746667c0 27.306667-23.893333 51.2-51.2 51.2z" fill="#26BD71" p-id="2804"></path></svg>